# xmcd
#
# Track frame offsets:
#	150
#	23029
#	37648
#	55034
#	74135
#
# Disc length: 1173 seconds
#
# Revision: 1
# Processed by: cddbd v1.5.1PL0 Copyright (c) Steve Scherf et al.
# Submitted via: CDex 1.50Beta5
#
DISCID=38049305
DTITLE=P・K・O - We are THE ONE!
DYEAR=1900
DGENRE=Rock
TTITLE0=鳥海浩輔・鈴木千尋・サエキトモ/We are THE ONE!
TTITLE1=鳥海浩輔/
TTITLE2=鈴木千尋/ふたりのDistance
TTITLE3=サエキトモ/Believe Me
TTITLE4=鳥海浩輔 鈴木千尋 サエキトモ/Voice Message
EXTD=
EXTT0=
EXTT1=
EXTT2=
EXTT3=
EXTT4=
PLAYORDER=
